<svg width="31px" height="30px" viewBox="0 0 31 30" version="1.1" xmlns="http://www.w3.org/2000/svg" xmlns:xlink="http://www.w3.org/1999/xlink">
    <g stroke="none" stroke-width="1" fill="none" fill-rule="evenodd">
        <g transform="translate(-1849.000000, -15.000000)" fill="#22252B" fill-rule="nonzero">
            <g transform="translate(1864.500000, 30.000000) scale(1, -1) translate(-1864.500000, -30.000000) translate(1849.000000, 15.000000)">
                <path d="M15.3781814,30 C18.1503166,30 20.7193213,29.3069662 23.0851954,27.9208986 C25.4510694,26.5348309 27.3150914,24.6708089 28.6772613,22.3288326 C30.0394312,19.9868563 30.7205162,17.4178516 30.7205162,14.6218186 C30.7205162,11.2761381 29.7407098,8.26502569 27.7810969,5.5884813 C25.821484,2.91193691 23.3002748,1.05986378 20.2174692,0.032261919 C19.8590035,-0.0394312343 19.5961286,0.00836420122 19.4288445,0.175648226 C19.2615605,0.34293225 19.1779185,0.546062851 19.1779185,0.785040029 C19.1779185,0.808937746 19.1779185,1.32273868 19.1779185,2.32644282 C19.1779185,3.33014697 19.1779185,4.22631139 19.1779185,5.01493607 C19.1779185,6.30541283 18.8314016,7.24937268 18.1383678,7.84681563 C18.9030948,7.91850878 19.5841797,8.03799737 20.1816227,8.2052814 C20.7790656,8.37256542 21.4123551,8.63544032 22.0814912,8.99390608 C22.7506273,9.35237185 23.288326,9.79447963 23.6945872,10.3202294 C24.1008484,10.8459792 24.4593141,11.539013 24.7699845,12.3993309 C25.0806548,13.2596487 25.2120922,14.2633528 25.1642968,15.4104433 C25.1642968,17.0115904 24.638547,18.3857092 23.5870474,19.5327996 C24.0888995,20.7515832 24.0411041,22.1137531 23.4436611,23.6193094 C23.0612976,23.7387979 22.5116501,23.6671048 21.7947186,23.4042299 C21.0777871,23.141355 20.4683953,22.8426335 19.9665432,22.5080655 L19.2137651,22.04206 C17.9710838,22.4005257 16.6925559,22.5797586 15.3781814,22.5797586 C14.0638069,22.5797586 12.7733301,22.4005257 11.5067511,22.04206 C11.3155694,22.1854463 11.0407456,22.3646792 10.6822798,22.5797586 C10.3238141,22.7948381 9.76221771,23.057713 8.99749074,23.3683833 C8.23276377,23.6790537 7.6711674,23.7626957 7.31270164,23.6193094 C6.71525869,22.1137531 6.6555144,20.7515832 7.13346875,19.5327996 C6.08196917,18.3857092 5.55621938,17.0115904 5.55621938,15.4104433 C5.55621938,14.2872506 5.69960569,13.2954953 5.9863783,12.4351774 C6.27315091,11.5748596 6.61966782,10.8698769 7.02592902,10.3202294 C7.43219023,9.77058191 7.96988888,9.32847413 8.63902497,8.99390608 C9.30816107,8.65933803 9.92950173,8.39646314 10.503047,8.2052814 C11.0765922,8.01409965 11.7576771,7.89461106 12.5463018,7.84681563 C12.0444498,7.36886127 11.7218306,6.67582746 11.5784443,5.76771418 C11.2916716,5.64822559 10.9929502,5.55263472 10.6822798,5.48094157 C10.3716095,5.40924842 9.98924603,5.37340184 9.53518939,5.37340184 C9.08113275,5.37340184 8.65097383,5.51678815 8.24471263,5.80356076 C7.83845143,6.09033337 7.4680368,6.50854343 7.13346875,7.05819094 C6.87059386,7.48834986 6.54797467,7.83486677 6.16561118,8.09774167 C5.7832477,8.36061656 5.44867965,8.52790059 5.16190704,8.59959374 L4.76759469,8.63544032 C4.48082208,8.63544032 4.28964034,8.6115426 4.19404947,8.56374716 C4.0984586,8.51595173 4.06261202,8.43230971 4.08650974,8.31282113 C4.11040746,8.19333254 4.17015175,8.09774167 4.26574262,8.02604851 C4.36133349,7.95435536 4.4449755,7.88266221 4.51666866,7.81096905 L4.66005496,7.70342932 C4.94682758,7.56004302 5.23360019,7.30911698 5.5203728,6.95065121 C5.80714542,6.59218545 6.02222488,6.24566854 6.16561118,5.91110049 L6.38069064,5.44509499 C6.54797467,4.94324292 6.83474728,4.53698172 7.24100848,4.22631139 C7.64726969,3.91564106 8.08937746,3.71251046 8.56733182,3.61691958 C9.04528618,3.52132871 9.51129167,3.48548214 9.96534831,3.50937985 C10.4194049,3.53327757 10.7898196,3.54522643 11.0765922,3.54522643 L11.5425977,3.65276616 C11.5425977,3.12701637 11.5425977,2.52957343 11.5425977,1.86043733 C11.5425977,1.19130123 11.5545465,0.832835464 11.5784443,0.785040029 C11.5784443,0.546062851 11.4828534,0.34293225 11.2916716,0.175648226 C11.1004899,0.00836420122 10.837615,-0.0394312343 10.503047,0.032261919 C7.42024137,1.05986378 4.89903214,2.91193691 2.93941929,5.5884813 C0.979806428,8.26502569 0,11.2761381 0,14.6218186 C0,17.4178516 0.693033815,19.9868563 2.07910145,22.3288326 C3.46516908,24.6708089 5.3172422,26.5348309 7.63532083,27.9208986 C9.95339945,29.3069662 12.534353,30 15.3781814,30 Z M5.80714542,7.91850878 C5.85494085,8.01409965 5.81909428,8.09774167 5.69960569,8.16943482 C5.55621938,8.19333254 5.46062851,8.18138368 5.41283307,8.13358824 C5.38893536,8.03799737 5.43673079,7.95435536 5.55621938,7.88266221 C5.67570797,7.81096905 5.75934998,7.82291791 5.80714542,7.91850878 Z M6.4523838,7.23742383 C6.54797467,7.30911698 6.53602581,7.41665671 6.41653722,7.56004302 C6.27315091,7.6795316 6.16561118,7.70342932 6.09391803,7.63173617 C5.99832716,7.56004302 6.01027602,7.45250329 6.12976461,7.30911698 C6.2492532,7.16573067 6.35679293,7.14183295 6.4523838,7.23742383 Z M7.02592902,6.34125941 C7.16931533,6.43685028 7.16931533,6.56828773 7.02592902,6.73557175 C6.93033815,6.90285578 6.82279842,6.93870235 6.70330983,6.84311148 C6.58382125,6.77141833 6.58382125,6.65192974 6.70330983,6.48464572 C6.82279842,6.31736169 6.93033815,6.26956626 7.02592902,6.34125941 Z M7.88624686,5.51678815 C7.98183773,5.61237902 7.95794002,5.73186761 7.81455371,5.87525391 C7.64726969,6.04253794 7.51583224,6.06643566 7.42024137,5.94694707 C7.30075278,5.82745848 7.3246505,5.69602103 7.49193452,5.55263472 C7.63532083,5.40924842 7.76675827,5.39729956 7.88624686,5.51678815 Z M9.03333732,5.01493607 C9.05723503,5.15832238 8.96164416,5.26586211 8.7465647,5.33755526 C8.55538296,5.3853507 8.43589437,5.33755526 8.38809894,5.19416896 C8.3403035,5.05078265 8.42394551,4.94324292 8.63902497,4.87154977 C8.83020672,4.79985661 8.96164416,4.84765205 9.03333732,5.01493607 Z M10.2879675,4.90739634 C10.2879675,5.07468037 10.1684789,5.14637352 9.92950173,5.1224758 C9.71442227,5.1224758 9.60688254,5.05078265 9.60688254,4.90739634 C9.60688254,4.74011232 9.72637113,4.66841917 9.96534831,4.69231688 C10.1804278,4.69231688 10.2879675,4.76401004 10.2879675,4.90739634 Z M11.435058,5.08662923 C11.4111602,5.25391325 11.2916716,5.31365755 11.0765922,5.26586211 C10.8615127,5.24196439 10.7659219,5.14637352 10.7898196,4.9790895 C10.8137173,4.81180547 10.9332059,4.76401004 11.1482853,4.83570319 C11.3633648,4.90739634 11.4589557,4.99103836 11.435058,5.08662923 Z"></path>
            </g>
        </g>
    </g>
</svg>