<svg width="12px" height="8px" viewBox="0 0 12 8" version="1.1" xmlns="http://www.w3.org/2000/svg" xmlns:xlink="http://www.w3.org/1999/xlink">
    <g stroke="none" stroke-width="1" fill="none" fill-rule="evenodd">
        <g transform="translate(-133.000000, -684.000000)" fill-rule="nonzero" stroke="#87898C">
            <g transform="translate(139.000000, 688.000000) scale(-1, -1) translate(-139.000000, -688.000000) translate(134.000000, 685.000000)">
                <path d="M10,0.629370629 C10,0.466200466 9.94172494,0.320512821 9.82517483,0.192307692 C9.70862471,0.0641025641 9.56293706,0.00582750583 9.38811189,0.0174825175 L0.646853147,0.0174825175 C0.472027972,0.0174825175 0.326340326,0.0757575758 0.20979021,0.192307692 C0.0932400932,0.308857809 0.0291375291,0.454545455 0.0174825175,0.629370629 C0.00582750583,0.804195804 0.0699300699,0.955710956 0.20979021,1.08391608 L4.58041958,5.45454545 C4.6969697,5.57109557 4.84265734,5.62937063 5.01748252,5.62937063 C5.19230769,5.62937063 5.33799534,5.57109557 5.45454545,5.45454545 L9.82517483,1.08391608 C9.94172494,0.955710956 10,0.804195804 10,0.629370629 Z"></path>
            </g>
        </g>
    </g>
</svg>