<svg width="24px" height="21px" viewBox="0 0 24 21" version="1.1" xmlns="http://www.w3.org/2000/svg" xmlns:xlink="http://www.w3.org/1999/xlink">
    <g stroke="none" stroke-width="1" fill="none" fill-rule="evenodd">
        <g transform="translate(-1835.000000, -645.000000)">
            <g transform="translate(1663.000000, 636.000000)">
                <g transform="translate(169.000000, 5.000000)">
                    <polygon id="Path" points="0 0 30 0 30 30 0 30"></polygon>
                    <path d="M23.9426523,4.83870968 L6.37992832,4.83870968 C4.9874552,4.83870968 3.87096774,5.96370968 3.87096774,7.33870968 L3.87096774,22.3387097 C3.87096774,23.7137097 4.9874552,24.8387097 6.37992832,24.8387097 L11.3978495,24.8387097 L11.3978495,22.3387097 L6.37992832,22.3387097 L6.37992832,9.83870968 L23.9426523,9.83870968 L23.9426523,22.3387097 L18.9247312,22.3387097 L18.9247312,24.8387097 L23.9426523,24.8387097 C25.3225806,24.8387097 26.4516129,23.7137097 26.4516129,22.3387097 L26.4516129,7.33870968 C26.4516129,5.96370968 25.3351254,4.83870968 23.9426523,4.83870968 Z M15.1612903,12.3387097 L10.1433692,17.3387097 L13.90681,17.3387097 L13.90681,24.8387097 L16.4157706,24.8387097 L16.4157706,17.3387097 L20.1792115,17.3387097 L15.1612903,12.3387097 Z" fill="#87898C" fill-rule="nonzero"></path>
                </g>
            </g>
        </g>
    </g>
</svg>